<svg id="Capa_1" enable-background="new 0 0 512 512" height="512" viewBox="0 0 512 512" width="512" xmlns="http://www.w3.org/2000/svg" xmlns:xlink="http://www.w3.org/1999/xlink"><linearGradient id="SVGID_1_" gradientUnits="userSpaceOnUse" x1="517.039" x2="-120.157" y1="-43.218" y2="593.979"><stop offset=".0023" stop-color="#ffc599"/><stop offset=".992" stop-color="#ffe8dc" stop-opacity="0"/></linearGradient><linearGradient id="SVGID_2_" gradientUnits="userSpaceOnUse" x1="258.257" x2="258.257" y1="348.477" y2="75.953"><stop offset="0" stop-color="#ff4d4d" stop-opacity=".4"/><stop offset="1" stop-color="#ff4d4d" stop-opacity="0"/></linearGradient><g><path d="m430.667 171.888c-8.355-8.355-18.026-14.923-28.717-19.765-28.021-12.69-50.051-35.408-62.434-63.565-22.917-52.113-74.975-88.512-135.545-88.558-79.312-.06-145.163 63.163-148.148 142.418-1.277 33.922 8.857 65.421 26.87 90.969 22.877 32.448 28.821 73.782 17.021 111.69-16.764 53.857-10.919 104.898 20.973 136.791 55.888 55.888 170.586 31.803 256.185-53.795 85.599-85.599 109.683-200.296 53.795-256.185z" fill="url(#SVGID_1_)"/><g><g><path d="m44.715 225.715c-1.28 0-2.559-.488-3.536-1.464l-11-11c-1.953-1.953-1.953-5.119 0-7.071l11-11c1.953-1.952 5.118-1.952 7.071 0l11 11c1.953 1.953 1.953 5.119 0 7.071l-11 11c-.976.976-2.255 1.464-3.535 1.464zm-3.929-16 3.929 3.929 3.929-3.929-3.929-3.929z" fill="#6c6cff"/></g><g><path d="m405.257 128.334c-1.28 0-2.559-.488-3.536-1.464l-11-11c-1.953-1.953-1.953-5.119 0-7.071l11-11c1.953-1.952 5.118-1.952 7.071 0l11 11c1.953 1.953 1.953 5.119 0 7.071l-11 11c-.976.975-2.255 1.464-3.535 1.464zm-3.929-16 3.929 3.929 3.929-3.929-3.929-3.929z" fill="#ff9d33"/></g><g><path d="m158.1 84.011c-7.175 0-13.012-5.837-13.012-13.012s5.837-13.012 13.012-13.012 13.012 5.837 13.012 13.012-5.837 13.012-13.012 13.012zm0-16.024c-1.661 0-3.012 1.351-3.012 3.012s1.351 3.012 3.012 3.012 3.012-1.351 3.012-3.012-1.351-3.012-3.012-3.012z" fill="#6c6cff"/></g><g><path d="m323.245 454.28c-7.175 0-13.012-5.837-13.012-13.012s5.837-13.012 13.012-13.012 13.012 5.837 13.012 13.012-5.837 13.012-13.012 13.012zm0-16.024c-1.661 0-3.012 1.351-3.012 3.012s1.351 3.012 3.012 3.012 3.012-1.351 3.012-3.012-1.351-3.012-3.012-3.012z" fill="#ff6c6c"/></g><g><path d="m359.86 415.72c-6.215 0-11.729-4.48-12.817-10.808-1.216-7.071 3.547-13.813 10.618-15.029 7.069-1.21 13.814 3.547 15.029 10.618 1.216 7.071-3.547 13.813-10.618 15.029-.742.128-1.482.19-2.212.19zm.008-16.026c-.169 0-.34.014-.512.044-1.637.281-2.74 1.842-2.458 3.479.281 1.636 1.839 2.739 3.479 2.458 1.637-.281 2.74-1.842 2.458-3.478-.252-1.466-1.528-2.503-2.967-2.503z" fill="#ff9d33"/></g><g><g><path d="m481.053 265.174c-7.248-24.572-30.349-40.131-54.858-38.846-8.902-14.375-22.226-25.72-38.073-32.144-6.155-66.314-61.943-118.232-129.865-118.232-68.64 0-124.897 53.019-130.052 120.338-14.653 1.93-28.807 8.515-40.066 19.774-9.061 9.061-15.085 20.002-18.108 31.565-21.079 4.854-36.802 23.722-36.802 46.275 0 26.234 21.266 47.5 47.5 47.5 11.054 0 21.217-3.786 29.287-10.118 10.944 10.632 25.868 17.19 42.331 17.19 16.993 0 32.349-6.982 43.377-18.225 17.946 11.534 39.301 18.225 62.219 18.225 19.911 0 38.642-5.05 54.983-13.939 12.854 8.79 28.395 13.939 45.143 13.939 19.044 0 36.526-6.66 50.271-17.762 11.046 4.554 23.658 5.519 36.009 1.876 28.753-8.481 45.185-38.664 36.704-67.416z" fill="#ffab66"/><path d="m442.177 333.181c-11.65 2.93-23.44 1.82-33.84-2.47-13.74 11.11-31.22 17.77-50.27 17.77-16.74 0-32.29-5.15-45.14-13.94-16.34 8.89-35.07 13.94-54.98 13.94-22.92 0-44.28-6.7-62.22-18.23-11.03 11.24-26.39 18.23-43.38 18.23-16.46 0-31.39-6.56-42.33-17.19-8.07 6.33-18.23 10.11-29.29 10.11-2.59 0-5.13-.21-7.61-.61-2.9-5.54-4.54-11.85-4.54-18.54 0-19.01 13.25-34.92 31.02-39.01 2.55-9.74 7.62-18.97 15.26-26.6 9.49-9.5 21.42-15.05 33.77-16.67 4.35-56.75 51.77-101.44 109.63-101.44 57.25 0 104.28 43.76 109.47 99.66 13.36 5.42 24.59 14.98 32.09 27.1 20.66-1.09 40.13 12.03 46.24 32.74 3.61 12.25 1.86 24.8-3.88 35.15z" fill="#ffc599"/><path d="m481.053 265.174c-7.248-24.572-30.349-40.131-54.858-38.846-8.902-14.375-22.226-25.72-38.073-32.144-6.155-66.314-61.943-118.232-129.865-118.232-68.64 0-124.897 53.019-130.052 120.338-14.653 1.93-28.807 8.515-40.066 19.774-9.061 9.061-15.085 20.002-18.108 31.565-21.079 4.854-36.802 23.722-36.802 46.275 0 26.234 21.266 47.5 47.5 47.5 11.054 0 21.217-3.786 29.287-10.118 10.944 10.632 25.868 17.19 42.331 17.19 16.993 0 32.349-6.982 43.377-18.225 17.946 11.534 39.301 18.225 62.219 18.225 19.911 0 38.642-5.05 54.983-13.939 12.854 8.79 28.395 13.939 45.143 13.939 19.044 0 36.526-6.66 50.271-17.762 11.046 4.554 23.658 5.519 36.009 1.876 28.753-8.481 45.185-38.664 36.704-67.416z" fill="url(#SVGID_2_)"/><g><path d="m167.712 323.576 81.885 81.885c4.783 4.783 12.538 4.783 17.321 0l81.885-81.885c7.716-7.716 2.251-20.908-8.66-20.908h-16.891v-99.205c0-6.764-5.483-12.248-12.248-12.248h-105.493c-6.764 0-12.248 5.483-12.248 12.248v99.205h-16.891c-10.911 0-16.375 13.192-8.66 20.908z" fill="#6c6cff"/><g><g><path d="m282.69 261.549c-.883 0-1.778-.234-2.588-.726-6.579-3.991-14.132-6.1-21.845-6.1-7.712 0-15.266 2.109-21.845 6.1-2.361 1.433-5.436.68-6.868-1.682-1.432-2.361-.679-5.436 1.682-6.868 8.143-4.939 17.49-7.55 27.031-7.55s18.889 2.611 27.031 7.55c2.361 1.432 3.114 4.507 1.682 6.868-.94 1.551-2.59 2.408-4.28 2.408z" fill="#fff3ee"/></g><g><path d="m268.649 277.786c-.883 0-1.778-.234-2.589-.726-2.349-1.425-5.047-2.179-7.803-2.179s-5.454.754-7.803 2.179c-2.362 1.433-5.436.68-6.869-1.681-1.432-2.361-.68-5.436 1.681-6.869 3.913-2.374 8.405-3.629 12.99-3.629s9.077 1.255 12.99 3.629c2.361 1.433 3.113 4.508 1.681 6.869-.939 1.55-2.588 2.407-4.278 2.407z" fill="#fff3ee"/></g><g><path d="m295.68 244.465c-.883 0-1.778-.234-2.588-.726-10.492-6.364-22.537-9.728-34.835-9.728-12.297 0-24.344 3.364-34.835 9.728-2.361 1.434-5.436.68-6.868-1.682-1.432-2.361-.679-5.436 1.682-6.868 12.056-7.313 25.895-11.178 40.022-11.178s27.966 3.865 40.021 11.178c2.361 1.432 3.114 4.507 1.682 6.868-.941 1.551-2.591 2.408-4.281 2.408z" fill="#fff3ee"/></g></g></g></g></g></g></g></svg>