<svg id="Capa_1" enable-background="new 0 0 512 512" height="512" viewBox="0 0 512 512" width="512" xmlns="http://www.w3.org/2000/svg" xmlns:xlink="http://www.w3.org/1999/xlink"><linearGradient id="SVGID_1_" gradientUnits="userSpaceOnUse" x1="53.976" x2="458.024" y1="256" y2="256"><stop offset=".00072338" stop-color="#ffd6bb"/><stop offset=".9993" stop-color="#ffd9d9" stop-opacity="0"/></linearGradient><linearGradient id="SVGID_2_" gradientUnits="userSpaceOnUse" x1="256" x2="256" y1="395.523" y2="190.704"><stop offset="0" stop-color="#ff4d4d" stop-opacity=".4"/><stop offset="1" stop-color="#ff4d4d" stop-opacity="0"/></linearGradient><g><g><path d="m170.091.39c-68.06 4.435-134.218 61.127-111.591 135.073 18.265 59.691 84.702 87.73 134.671 115.676 47.928 26.805 98.6 60.229 112.037 117.192 9.247 39.199-2.084 84.916 22.012 117.187 42.331 56.694 124.078 13.634 130.314-47.258 5.176-50.542-31.51-94.701-65.828-132.165-33.267-36.317-70.462-71.374-99.992-110.843-27.345-36.55-41.639-81.985-5.379-118.188 8.145-8.132 17.848-16.505 14.872-29.734-9.77-43.394-97.817-49.109-131.116-46.94z" fill="url(#SVGID_1_)"/></g><g><g><path d="m173.098 158.23-13.274-35.275c-1.467-3.897-5.195-6.478-9.359-6.478h-92.483c-5.523 0-10 4.477-10 10v269.046h326.944c5.523 0 10-4.477 10-10v-217.293c0-5.523-4.477-10-10-10z" fill="#ff8b00"/><path d="m47.982 263.543v131.98h326.944c5.523 0 10-4.477 10-10v-121.98z" fill="#ff7300"/><g><path d="m386.237 195.877-65.002-65.002-59.33.01-64.991 64.992z" fill="#fff"/><path d="m331.85 141.49-27.55 27.54c-3.4 3.4-7.92 5.27-12.72 5.27-4.81 0-9.33-1.87-12.73-5.27l-27.54-27.54 10.6-10.6 59.33-.01z" fill="#fff3ee"/><path d="m321.235 130.88-27.539 27.544c-1.172 1.172-3.071 1.172-4.243 0l-27.544-27.539z" fill="#ffab66"/></g><path d="m129.427 196.91-81.445 198.613h330.237c4.057 0 7.713-2.452 9.252-6.206l75.788-184.819c2.698-6.58-2.141-13.794-9.252-13.794h-315.328c-4.057 0-7.712 2.451-9.252 6.206z" fill="#ffab66"/><path d="m135.24 159.302h-57.738c-2.761 0-5-2.239-5-5v-10.301c0-2.762 2.239-5 5-5h53.787c2.071 0 3.927 1.276 4.668 3.209l3.951 10.301c1.256 3.275-1.161 6.791-4.668 6.791z" fill="#ffe8dc"/><path d="m362.963 373.174h-86.128c-3.601 0-6.021-3.691-4.586-6.993l13.654-31.421c.794-1.826 2.595-3.007 4.586-3.007h86.128c3.6 0 6.021 3.691 4.586 6.993l-13.654 31.421c-.794 1.826-2.595 3.007-4.586 3.007z" fill="#ff4d4d"/><g fill="#fff"><path d="m354.201 352.464h-12.122c-2.761 0-5 2.239-5 5 0 2.761 2.239 5 5 5h12.337c2.924 0 5.261-2.509 4.976-5.492-.247-2.599-2.579-4.508-5.191-4.508z"/><path d="m320.977 352.464h-6.122c-2.761 0-5 2.239-5 5 0 2.761 2.239 5 5 5h6.337c2.924 0 5.261-2.509 4.977-5.492-.249-2.599-2.58-4.508-5.192-4.508z"/></g><circle cx="285.985" cy="326.695" fill="#8383ff" r="20.835"/><path d="m143.631 340.091c0-9.16-7.453-16.613-16.613-16.613s-16.613 7.453-16.613 16.613c0 4.518 1.818 8.615 4.755 11.613-2.937 2.998-4.755 7.096-4.755 11.613 0 2.762 2.238 5 5 5s5-2.238 5-5c0-3.646 2.967-6.613 6.613-6.613s6.613 2.967 6.613 6.613c0 2.762 2.238 5 5 5s5-2.238 5-5c0-4.518-1.818-8.615-4.755-11.613 2.937-2.997 4.755-7.095 4.755-11.613zm-16.613-6.613c3.646 0 6.613 2.967 6.613 6.613s-2.967 6.613-6.613 6.613-6.613-2.967-6.613-6.613 2.967-6.613 6.613-6.613z" fill="#fff"/></g><path d="m204.914 99.361h-3v-3c0-2.762-2.238-5-5-5s-5 2.238-5 5v3h-3c-2.762 0-5 2.238-5 5s2.238 5 5 5h3v3c0 2.762 2.238 5 5 5s5-2.238 5-5v-3h3c2.762 0 5-2.238 5-5 0-2.761-2.238-5-5-5z" fill="#ffab66"/><path d="m383.92 427.755h-3v-3c0-2.762-2.238-5-5-5s-5 2.238-5 5v3h-3c-2.762 0-5 2.238-5 5s2.238 5 5 5h3v3c0 2.762 2.238 5 5 5s5-2.238 5-5v-3h3c2.762 0 5-2.238 5-5s-2.238-5-5-5z" fill="#6c6cff"/><g><g><path d="m243.799 75.768c-1.279 0-2.559-.488-3.535-1.465l-4.465-4.464-4.465 4.464c-1.951 1.953-5.119 1.953-7.07 0-1.953-1.952-1.953-5.118 0-7.07l8-8c1.951-1.953 5.119-1.953 7.07 0l8 8c1.953 1.952 1.953 5.118 0 7.07-.976.976-2.256 1.465-3.535 1.465z" fill="#6c6cff"/></g></g><g><g><path d="m148.245 87.102c-1.279 0-2.56-.488-3.535-1.465l-4.465-4.464-4.465 4.464c-1.951 1.953-5.119 1.953-7.07 0-1.953-1.952-1.953-5.118 0-7.07l8-8c1.951-1.953 5.119-1.953 7.07 0l8 8c1.953 1.952 1.953 5.118 0 7.07-.975.976-2.256 1.465-3.535 1.465z" fill="#ff6c6c"/></g></g><g><g><path d="m329.235 450.781c-1.279 0-2.56-.488-3.535-1.465l-4.465-4.464-4.465 4.464c-1.951 1.953-5.119 1.953-7.07 0-1.953-1.952-1.953-5.118 0-7.07l8-8c1.951-1.953 5.119-1.953 7.07 0l8 8c1.953 1.952 1.953 5.118 0 7.07-.975.977-2.255 1.465-3.535 1.465z" fill="#ffab66"/></g></g></g><path d="m129.427 196.91-81.445 198.613h330.237c4.057 0 7.713-2.452 9.252-6.206l75.788-184.819c2.698-6.58-2.141-13.794-9.252-13.794h-315.328c-4.057 0-7.712 2.451-9.252 6.206z" fill="url(#SVGID_2_)"/></g></svg>