<svg id="Capa_1" enable-background="new 0 0 512 512" height="512" viewBox="0 0 512 512" width="512" xmlns="http://www.w3.org/2000/svg" xmlns:xlink="http://www.w3.org/1999/xlink"><linearGradient id="SVGID_1_" gradientUnits="userSpaceOnUse" x1="514.786" x2="-122.41" y1="-43.218" y2="593.979"><stop offset="0" stop-color="#d2deff" stop-opacity="0"/><stop offset="1" stop-color="#b7c5ff"/></linearGradient><g><path d="m428.414 171.888c-8.355-8.355-18.026-14.923-28.717-19.765-28.021-12.69-50.051-35.408-62.434-63.565-22.917-52.113-74.975-88.512-135.546-88.558-79.311-.06-145.162 63.163-148.147 142.418-1.277 33.922 8.857 65.421 26.87 90.969 22.877 32.448 28.821 73.782 17.021 111.69-16.764 53.857-10.919 104.898 20.973 136.791 55.888 55.888 170.586 31.803 256.185-53.795 85.598-85.599 109.683-200.296 53.795-256.185z" fill="url(#SVGID_1_)"/><g><g><path d="m42.462 225.715c-1.28 0-2.559-.488-3.536-1.464l-11-11c-1.953-1.953-1.953-5.119 0-7.071l11-11c1.953-1.952 5.118-1.952 7.071 0l11 11c1.953 1.953 1.953 5.119 0 7.071l-11 11c-.976.976-2.255 1.464-3.535 1.464zm-3.929-16 3.929 3.929 3.929-3.929-3.929-3.929z" fill="#6583fe"/></g><g><path d="m403.004 128.334c-1.28 0-2.559-.488-3.536-1.464l-11-11c-1.953-1.953-1.953-5.119 0-7.071l11-11c1.953-1.952 5.118-1.952 7.071 0l11 11c1.953 1.953 1.953 5.119 0 7.071l-11 11c-.976.975-2.255 1.464-3.535 1.464zm-3.929-16 3.929 3.929 3.929-3.929-3.929-3.929z" fill="#6583fe"/></g><g><path d="m155.847 84.011c-7.175 0-13.012-5.837-13.012-13.012s5.837-13.012 13.012-13.012 13.012 5.837 13.012 13.012-5.837 13.012-13.012 13.012zm0-16.024c-1.661 0-3.012 1.351-3.012 3.012s1.351 3.012 3.012 3.012 3.012-1.351 3.012-3.012-1.351-3.012-3.012-3.012z" fill="#6583fe"/></g><g><path d="m320.992 454.28c-7.175 0-13.012-5.837-13.012-13.012s5.837-13.012 13.012-13.012 13.012 5.837 13.012 13.012-5.837 13.012-13.012 13.012zm0-16.024c-1.661 0-3.012 1.351-3.012 3.012s1.351 3.012 3.012 3.012 3.012-1.351 3.012-3.012-1.351-3.012-3.012-3.012z" fill="#6583fe"/></g><g><path d="m357.607 415.72c-6.215 0-11.729-4.48-12.817-10.808-1.216-7.071 3.547-13.813 10.618-15.029 7.069-1.21 13.814 3.547 15.029 10.618 1.216 7.071-3.547 13.813-10.618 15.029-.742.128-1.482.19-2.212.19zm.008-16.026c-.169 0-.34.014-.512.044-1.637.281-2.74 1.842-2.458 3.479.281 1.636 1.839 2.739 3.479 2.458 1.637-.281 2.74-1.842 2.458-3.478-.252-1.466-1.528-2.503-2.967-2.503z" fill="#6583fe"/></g><g><path d="m478.8 292.174c-7.248-24.572-30.349-40.131-54.858-38.846-8.902-14.375-22.226-25.72-38.073-32.144-6.155-66.314-61.943-118.232-129.865-118.232-68.64 0-124.897 53.019-130.052 120.338-14.653 1.93-28.807 8.515-40.066 19.774-9.061 9.061-15.085 20.002-18.108 31.565-21.079 4.854-36.802 23.722-36.802 46.275 0 26.234 21.266 47.5 47.5 47.5 11.054 0 21.217-3.786 29.287-10.118 10.944 10.632 25.868 17.19 42.331 17.19 11.525 0 22.292-3.22 31.471-8.794l65.777 65.777c4.783 4.783 12.538 4.783 17.321 0l62.342-62.341c8.941 3.453 18.651 5.358 28.811 5.358 19.044 0 36.526-6.66 50.271-17.762 11.046 4.554 23.658 5.519 36.009 1.876 28.753-8.481 45.185-38.664 36.704-67.416z" fill="#00c" opacity=".1"/><g><path d="m478.8 265.174c-7.248-24.572-30.349-40.131-54.858-38.846-8.902-14.375-22.226-25.72-38.073-32.144-6.155-66.314-61.943-118.232-129.865-118.232-68.64 0-124.897 53.019-130.052 120.338-14.653 1.93-28.807 8.515-40.066 19.774-9.061 9.061-15.085 20.002-18.108 31.565-21.079 4.854-36.802 23.722-36.802 46.275 0 26.234 21.266 47.5 47.5 47.5 11.054 0 21.217-3.786 29.287-10.118 10.944 10.632 25.868 17.19 42.331 17.19 16.993 0 32.349-6.982 43.377-18.225 17.946 11.534 39.301 18.225 62.219 18.225 19.911 0 38.642-5.05 54.983-13.939 12.854 8.79 28.395 13.939 45.143 13.939 19.044 0 36.526-6.66 50.271-17.762 11.046 4.554 23.658 5.519 36.009 1.876 28.753-8.481 45.185-38.664 36.704-67.416z" fill="#fff"/><path d="m439.924 333.181c-11.65 2.93-23.44 1.82-33.84-2.47-13.74 11.11-31.22 17.77-50.27 17.77-16.74 0-32.29-5.15-45.14-13.94-16.34 8.89-35.07 13.94-54.98 13.94-22.92 0-44.28-6.7-62.22-18.23-11.03 11.24-26.39 18.23-43.38 18.23-16.46 0-31.39-6.56-42.33-17.19-8.07 6.33-18.23 10.11-29.29 10.11-2.59 0-5.13-.21-7.61-.61-2.9-5.54-4.54-11.85-4.54-18.54 0-19.01 13.25-34.92 31.02-39.01 2.55-9.74 7.62-18.97 15.26-26.6 9.49-9.5 21.42-15.05 33.77-16.67 4.35-56.75 51.77-101.44 109.63-101.44 57.25 0 104.28 43.76 109.47 99.66 13.36 5.42 24.59 14.98 32.09 27.1 20.66-1.09 40.13 12.03 46.24 32.74 3.61 12.25 1.86 24.8-3.88 35.15z" fill="#6583fe"/><g><path d="m165.459 323.576 81.885 81.885c4.783 4.783 12.538 4.783 17.321 0l81.885-81.885c7.716-7.716 2.251-20.908-8.66-20.908h-16.891v-99.205c0-6.764-5.483-12.248-12.248-12.248h-105.493c-6.764 0-12.248 5.483-12.248 12.248v99.205h-16.891c-10.911 0-16.376 13.192-8.66 20.908z" fill="#fff"/><path d="m483.599 263.755c-7.495-25.401-30.553-42.501-56.743-42.501-.078 0-.156 0-.234 0-8.877-13.284-21.527-23.98-36.09-30.516-3.718-32.304-18.934-62.117-43.057-84.226-25.021-22.932-57.507-35.562-91.471-35.562-34.349 0-67.107 12.879-92.24 36.265-24.029 22.359-39.004 52.326-42.436 84.748-14.81 2.752-28.219 9.81-38.982 20.564-8.649 8.659-15.041 19.321-18.601 30.986-22.387 6.487-37.771 26.8-37.771 50.397 0 28.949 23.551 52.5 52.5 52.5 10.422 0 20.337-2.992 28.922-8.69 11.907 10.193 26.912 15.76 42.697 15.76 10.717 0 21.222-2.612 30.625-7.573l63.089 63.089c3.257 3.258 7.589 5.052 12.196 5.052s8.938-1.795 12.196-5.052l81.885-81.884c5.026-5.026 6.459-12.228 3.739-18.796-2.72-6.567-8.826-10.647-15.935-10.647h-11.891v-29.334c0-2.761-2.239-5-5-5s-5 2.239-5 5v34.334c0 2.761 2.239 5 5 5h16.891c3.032 0 5.536 1.673 6.696 4.474s.573 5.754-1.571 7.898l-81.885 81.885c-1.369 1.369-3.188 2.123-5.124 2.123s-3.756-.754-5.125-2.123l-81.885-81.884c-2.145-2.144-2.731-5.097-1.571-7.898s3.664-4.474 6.696-4.474h16.891c2.761 0 5-2.239 5-5v-99.206c0-3.996 3.251-7.247 7.248-7.247h105.492c3.996 0 7.248 3.251 7.248 7.247v30.871c0 2.761 2.239 5 5 5s5-2.239 5-5v-30.871c0-9.51-7.737-17.247-17.248-17.247h-105.492c-9.51 0-17.248 7.737-17.248 17.247v94.206h-11.891c-7.108 0-13.214 4.08-15.935 10.647-2.72 6.567-1.288 13.77 3.739 18.796l11.328 11.328c-7.229 3.307-15.121 5.041-23.158 5.041-14.579 0-28.375-5.603-38.846-15.776-1.795-1.745-4.602-1.893-6.57-.348-7.551 5.923-16.612 9.054-26.204 9.054-23.435 0-42.5-19.065-42.5-42.5 0-19.919 13.538-36.946 32.921-41.408 1.812-.417 3.244-1.806 3.715-3.605 2.9-11.064 8.713-21.197 16.807-29.3 10.146-10.136 23.005-16.481 37.19-18.35 2.344-.309 4.152-2.218 4.332-4.576 2.404-31.419 16.48-60.589 39.637-82.136 23.276-21.658 53.615-33.585 85.428-33.585 31.456 0 61.542 11.696 84.715 32.935 23.029 21.106 37.294 49.787 40.166 80.757.172 1.86 1.368 3.469 3.099 4.171 14.68 5.955 27.361 16.662 35.708 30.148.96 1.553 2.699 2.447 4.514 2.362 22.848-1.203 43.32 13.298 49.801 35.261 7.685 26.064-7.266 53.523-33.328 61.21-10.893 3.211-22.199 2.624-32.692-1.697-1.691-.696-3.625-.415-5.046.734-9.169 7.407-20.073 12.602-31.533 15.026-2.702.571-4.429 3.225-3.857 5.926.571 2.701 3.219 4.426 5.926 3.857 12.053-2.549 23.561-7.799 33.456-15.243 11.727 4.153 24.602 4.518 36.575.989 31.352-9.249 49.337-42.28 40.092-73.633z" fill="#00c"/><g><g><path d="m280.437 261.549c-.883 0-1.778-.234-2.588-.726-6.579-3.991-14.132-6.1-21.845-6.1-7.712 0-15.266 2.109-21.845 6.1-2.361 1.433-5.436.68-6.868-1.682-1.432-2.361-.679-5.436 1.682-6.868 8.143-4.939 17.49-7.55 27.031-7.55s18.889 2.611 27.031 7.55c2.361 1.432 3.114 4.507 1.682 6.868-.94 1.551-2.59 2.408-4.28 2.408z" fill="#00c"/></g><g><path d="m266.396 277.786c-.883 0-1.778-.234-2.589-.726-2.349-1.425-5.047-2.179-7.803-2.179s-5.454.754-7.803 2.179c-2.362 1.433-5.436.68-6.869-1.681-1.432-2.361-.68-5.436 1.681-6.869 3.913-2.374 8.405-3.629 12.99-3.629s9.077 1.255 12.99 3.629c2.361 1.433 3.113 4.508 1.681 6.869-.94 1.55-2.588 2.407-4.278 2.407z" fill="#00c"/></g><g><path d="m293.427 244.465c-.883 0-1.778-.234-2.588-.726-10.492-6.364-22.537-9.728-34.835-9.728-12.297 0-24.344 3.364-34.835 9.728-2.361 1.434-5.436.68-6.868-1.682-1.432-2.361-.679-5.436 1.682-6.868 12.056-7.313 25.895-11.178 40.022-11.178s27.966 3.865 40.021 11.178c2.361 1.432 3.114 4.507 1.682 6.868-.941 1.551-2.591 2.408-4.281 2.408z" fill="#00c"/></g></g></g></g></g></g></g></svg>