<svg id="Capa_1" enable-background="new 0 0 512 512" height="512" viewBox="0 0 512 512" width="512" xmlns="http://www.w3.org/2000/svg" xmlns:xlink="http://www.w3.org/1999/xlink"><linearGradient id="SVGID_1_" gradientTransform="matrix(1 0 0 -1 0 513.276)" gradientUnits="userSpaceOnUse" x1="47.476" x2="451.525" y1="257.276" y2="257.276"><stop offset="0" stop-color="#d2deff" stop-opacity="0"/><stop offset="1" stop-color="#b7c5ff"/></linearGradient><g><g><path d="m163.6.4c-68.1 4.4-134.2 61.1-111.6 135.1 18.3 59.7 84.7 87.7 134.7 115.7 47.9 26.8 98.6 60.2 112 117.2 9.2 39.2-2.1 84.9 22 117.2 42.3 56.7 124.1 13.6 130.3-47.3 5.2-50.5-31.5-94.7-65.8-132.2-33.3-36.3-70.5-71.4-100-110.8-27.3-36.6-41.6-82-5.4-118.2 8.1-8.1 17.8-16.5 14.9-29.7-9.8-43.5-97.8-49.2-131.1-47z" fill="url(#SVGID_1_)"/></g><g><path d="m465.5 214.7h-87.1v-22.5c0-5.5-4.5-10-10-10h-26.3l-27.4-27.4h-59.3l-27.3 27.3h-61.5l-13.3-35.1c-1.5-3.9-5.2-6.5-9.4-6.5h-92.4c-5.5 0-10 4.5-10 10v259c0 5.5 4.5 10 10 10h338.2c4.1 0 7.7-2.5 9.3-6.2l75.8-184.8c2.7-6.6-2.2-13.8-9.3-13.8z" fill="#00c" opacity=".1"/><g><path d="m166.6 158.2-13.3-35.2c-1.5-3.9-5.2-6.5-9.4-6.5h-92.4c-5.5 0-10 4.5-10 10v269h326.9c5.5 0 10-4.5 10-10v-217.3c0-5.5-4.5-10-10-10z" fill="#fff"/><path d="m41.5 263.5v132h326.9c5.5 0 10-4.5 10-10v-122z" fill="#6583fe"/><g><path d="m379.7 195.9-65-65h-59.3l-65 65z" fill="#fff"/><path d="m314.7 130.9-27.5 27.5c-1.2 1.2-3.1 1.2-4.2 0l-27.5-27.5z" fill="#6583fe"/></g><path d="m122.9 196.9-81.4 198.6h330.2c4.1 0 7.7-2.5 9.3-6.2l75.8-184.8c2.7-6.6-2.1-13.8-9.3-13.8h-315.3c-4.1 0-7.7 2.5-9.3 6.2z" fill="#fff"/><path d="m460 192.3c-2.8-4.2-7.4-6.6-12.5-6.6h-64.1v-17.5c0-8.3-6.7-15-15-15h-24.3l-25.9-25.9c-.9-.9-2.2-1.5-3.5-1.5h-59.3c-1.3 0-2.6.5-3.5 1.5l-25.9 25.9h-55.9l-12.1-32c-2.2-5.8-7.8-9.7-14-9.7h-92.5c-8.3 0-15 6.7-15 15v108.7c0 2.8 2.2 5 5 5s5-2.2 5-5v-108.7c0-2.8 2.2-5 5-5h92.5c2.1 0 3.9 1.3 4.7 3.2l13.3 35.3c.7 1.9 2.6 3.2 4.7 3.2h49.3l-22.5 22.5h-61.3c-6.1 0-11.6 3.7-13.9 9.3l-71.8 175.2v-102c0-2.8-2.2-5-5-5s-5 2.2-5 5v127.4c0 2.7 2.3 5 5 5h330.2c6.1 0 11.6-3.7 13.9-9.3l75.8-184.8c1.9-4.7 1.4-10-1.4-14.2zm-91.6-29.1c2.8 0 5 2.2 5 5v14.3l-19.3-19.3zm-65.7-27.3-17.6 17.6-17.6-17.6zm149.4 66.7-75.8 184.8c-.8 1.9-2.6 3.1-4.6 3.1h-146.7-176.1l78.6-191.7c.8-1.9 2.6-3.1 4.6-3.1h101.9c2.8 0 5-2.2 5-5s-2.2-5-5-5h-26.3l47.7-47.7 24 24c1.5 1.5 3.5 2.3 5.7 2.3 2.1 0 4.1-.8 5.7-2.3l24-24 47.8 47.8h-95.6c-2.8 0-5 2.2-5 5s2.2 5 5 5h180.5c1.7 0 3.2.8 4.2 2.2.9 1.3 1.1 3 .4 4.6z" fill="#00c"/><path d="m128.7 159.3h-57.7c-2.8 0-5-2.2-5-5v-10.3c0-2.8 2.2-5 5-5h53.8c2.1 0 3.9 1.3 4.7 3.2l4 10.3c1.2 3.3-1.3 6.8-4.8 6.8z" fill="#6583fe"/><path d="m356.5 373.2h-86.1c-3.6 0-6-3.7-4.6-7l13.7-31.4c.8-1.8 2.6-3 4.6-3h86.1c3.6 0 6 3.7 4.6 7l-13.8 31.4c-.7 1.8-2.5 3-4.5 3z" fill="#6583fe"/><g fill="#00c"><path d="m347.7 352.5h-12.1c-2.8 0-5 2.2-5 5 0 2.8 2.2 5 5 5h12.3c2.9 0 5.3-2.5 5-5.5-.3-2.6-2.6-4.5-5.2-4.5z"/><path d="m314.5 352.5h-6.1c-2.8 0-5 2.2-5 5 0 2.8 2.2 5 5 5h6.3c2.9 0 5.3-2.5 5-5.5-.3-2.6-2.6-4.5-5.2-4.5z"/></g><g><circle cx="279.5" cy="326.7" fill="#fff" r="20.8"/></g><g><path d="m279.5 352.5c-14.2 0-25.8-11.6-25.8-25.8s11.6-25.8 25.8-25.8 25.8 11.6 25.8 25.8-11.6 25.8-25.8 25.8zm0-41.6c-8.7 0-15.8 7.1-15.8 15.8s7.1 15.8 15.8 15.8 15.8-7.1 15.8-15.8-7.1-15.8-15.8-15.8z" fill="#00c"/></g><path d="m137.1 340.1c0-9.2-7.5-16.6-16.6-16.6s-16.6 7.5-16.6 16.6c0 4.5 1.8 8.6 4.8 11.6-2.9 3-4.8 7.1-4.8 11.6 0 2.8 2.2 5 5 5s5-2.2 5-5c0-3.6 3-6.6 6.6-6.6s6.6 3 6.6 6.6c0 2.8 2.2 5 5 5s5-2.2 5-5c0-4.5-1.8-8.6-4.8-11.6 3-3 4.8-7.1 4.8-11.6zm-16.6-6.6c3.6 0 6.6 3 6.6 6.6s-3 6.6-6.6 6.6-6.6-3-6.6-6.6 3-6.6 6.6-6.6z" fill="#00c"/></g><path d="m198.4 99.4h-3v-3c0-2.8-2.2-5-5-5s-5 2.2-5 5v3h-3c-2.8 0-5 2.2-5 5s2.2 5 5 5h3v3c0 2.8 2.2 5 5 5s5-2.2 5-5v-3h3c2.8 0 5-2.2 5-5s-2.2-5-5-5z" fill="#6583fe"/><path d="m377.4 427.8h-3v-3c0-2.8-2.2-5-5-5s-5 2.2-5 5v3h-3c-2.8 0-5 2.2-5 5s2.2 5 5 5h3v3c0 2.8 2.2 5 5 5s5-2.2 5-5v-3h3c2.8 0 5-2.2 5-5s-2.2-5-5-5z" fill="#6583fe"/><g><g><path d="m237.3 75.8c-1.3 0-2.6-.5-3.5-1.5l-4.5-4.5-4.5 4.5c-2 2-5.1 2-7.1 0s-2-5.1 0-7.1l8-8c2-2 5.1-2 7.1 0l8 8c2 2 2 5.1 0 7.1-.9 1-2.2 1.5-3.5 1.5z" fill="#6583fe"/></g></g><g><g><path d="m141.7 87.1c-1.3 0-2.6-.5-3.5-1.5l-4.5-4.5-4.5 4.5c-2 2-5.1 2-7.1 0s-2-5.1 0-7.1l8-8c2-2 5.1-2 7.1 0l8 8c2 2 2 5.1 0 7.1-.9 1-2.2 1.5-3.5 1.5z" fill="#6583fe"/></g></g><g><g><path d="m322.7 450.8c-1.3 0-2.6-.5-3.5-1.5l-4.5-4.5-4.5 4.5c-2 2-5.1 2-7.1 0s-2-5.1 0-7.1l8-8c2-2 5.1-2 7.1 0l8 8c2 2 2 5.1 0 7.1-.9 1-2.2 1.5-3.5 1.5z" fill="#6583fe"/></g></g></g></g></svg>